<svg width="608" height="447" viewBox="0 0 608 447" fill="none" xmlns="http://www.w3.org/2000/svg">
<g clip-path="url(#clip0_57_3081)">
<path d="M193.026 466.739C194.346 460.931 195.451 434.759 196.771 428.951C173.235 438.571 146.276 439.568 122.099 431.659C97.9217 423.75 77.8452 405.509 63.8666 384.275C44.7886 355.311 26.2098 325.847 7.16748 296.883C26.5308 267.134 57.8757 244.191 92.0022 234.393C110.331 252.278 131.157 270.911 151.59 286.337C163.536 258.727 175.517 230.973 191.457 205.464C207.397 179.956 227.153 155.729 254.219 142.619C278.111 131.04 303.643 122.81 329.817 118.286C335.345 126.017 344.367 129.757 353.816 128.974C363.266 128.19 372.181 122.169 376.389 113.654C405.238 116.148 432.339 121.884 459.405 132.18C498.952 147.25 533.043 177.319 554.688 213.659C570.842 240.735 585.249 267.811 596.339 297.346C603.578 316.62 609.711 337.034 607.5 357.52C604.612 384.774 585.891 409.784 560.536 420.294C535.182 430.804 504.265 426.386 482.905 409.179C483.048 421.434 482.798 453.129 482.941 465.385L192.955 466.703L193.026 466.739Z" fill="#FB3D01"/>
<path d="M310.668 124.592C315.09 136.527 325.538 145.896 337.698 149.637C349.858 153.378 363.48 151.632 374.642 145.505C385.803 139.377 394.469 129.081 399.211 117.252" stroke="#060305" stroke-width="0.886039" stroke-linecap="round" stroke-linejoin="round"/>
<path d="M315.625 132.358C318.122 131.361 320.654 130.363 323.15 129.366" stroke="#060305" stroke-width="0.886039" stroke-linecap="round" stroke-linejoin="round"/>
<path d="M336.165 136.349C333.919 139.341 331.672 142.334 329.461 145.362" stroke="#060305" stroke-width="0.886039" stroke-linecap="round" stroke-linejoin="round"/>
<path d="M352.105 139.448C351.463 143.011 350.857 146.609 350.215 150.172" stroke="#060305" stroke-width="0.886039" stroke-linecap="round" stroke-linejoin="round"/>
<path d="M366.975 135.208C369.008 138.272 371.04 141.336 373.073 144.4" stroke="#060305" stroke-width="0.886039" stroke-linecap="round" stroke-linejoin="round"/>
<path d="M379.956 125.09C383.343 126.515 386.695 127.94 390.083 129.365" stroke="#060305" stroke-width="0.886039" stroke-linecap="round" stroke-linejoin="round"/>
<path d="M482.727 412.207C480.694 382.957 478.697 353.708 476.665 324.494C473.812 283.309 470.71 241.02 475.702 200.049" stroke="#060305" stroke-width="0.886039" stroke-linecap="round" stroke-linejoin="round"/>
<path d="M530.761 258.085C555.509 275.899 577.297 297.774 594.984 322.606" stroke="#060305" stroke-width="0.886039" stroke-linecap="round" stroke-linejoin="round"/>
<path d="M173.557 312.951C165.89 303.688 158.223 294.46 150.556 285.198C154.871 287.763 160.291 289.259 164.606 291.824" stroke="#060305" stroke-width="0.886039" stroke-linecap="round" stroke-linejoin="round"/>
<path d="M230.79 192.781C230.79 234.073 230.826 275.364 230.862 316.691C230.862 340.953 214.815 362.294 207.397 385.415" stroke="#060305" stroke-width="0.886039" stroke-linecap="round" stroke-linejoin="round"/>
<path d="M219.023 202.614C222.589 206.64 226.191 210.666 229.757 214.692" stroke="#060305" stroke-width="0.886039" stroke-linecap="round" stroke-linejoin="round"/>
<path d="M479.661 362.401C500.415 363.469 521.454 355.881 536.717 341.773C551.979 327.7 561.215 307.322 561.75 286.551" stroke="#060305" stroke-width="0.886039" stroke-linecap="round" stroke-linejoin="round"/>
<path d="M487.435 329.802C490.003 340.134 492.606 350.466 495.173 360.762" stroke="#060305" stroke-width="0.886039" stroke-linecap="round" stroke-linejoin="round"/>
<path d="M505.942 326.703C510.685 335.289 515.464 343.875 520.206 352.496" stroke="#060305" stroke-width="0.886039" stroke-linecap="round" stroke-linejoin="round"/>
<path d="M520.455 314.875C525.626 320.468 530.796 326.026 536.003 331.619" stroke="#060305" stroke-width="0.886039" stroke-linecap="round" stroke-linejoin="round"/>
<path d="M528.836 298.094L552.586 318.936" stroke="#060305" stroke-width="0.886039" stroke-linecap="round" stroke-linejoin="round"/>
<path d="M535.113 278.286C543.029 284.592 550.946 290.898 558.827 297.204" stroke="#060305" stroke-width="0.886039" stroke-linecap="round" stroke-linejoin="round"/>
<path d="M324.148 2.03571C318.906 16.5358 316.231 31.9622 316.231 47.3886" stroke="#2B0303" stroke-width="0.886039" stroke-linecap="round" stroke-linejoin="round"/>
<path d="M397.786 22.3785C394.755 25.9055 391.724 29.4326 388.657 32.9597C389.37 28.7201 390.119 24.5161 390.832 20.2765L331.138 2.14246C322.971 16.8207 317.658 33.0309 315.554 49.6686C313.557 65.4513 330.175 79.8445 344.546 86.6136C358.952 93.3827 376.568 92.8127 390.475 85.0817C397.108 65.9857 405.096 45.7497 411.729 26.6537L397.786 22.4141V22.3785Z" fill="#2B0303"/>
<path d="M377.958 120.423C377.281 114.011 376.924 107.883 376.247 101.47C383.414 101.149 391.153 99.3324 395.646 93.739C400.21 88.0387 399.996 79.0251 395.146 73.5742C390.297 68.1233 381.382 66.8407 375.177 70.6884C374.107 61.6036 371.861 51.6993 370.791 42.6145C366.369 45.3221 360.307 46.1772 355.314 44.6452C350.322 43.1133 346.114 39.3725 343.975 34.6341C342.513 36.843 339.339 37.3061 336.7 37.6267C334.061 37.9474 331.315 37.0923 329.354 35.2754C326.965 37.8049 323.577 39.515 321.188 42.0801C312.344 51.45 311.275 65.1307 309.349 77.8494C308.279 84.9035 308.992 92.3495 312.558 98.513C316.124 104.676 322.044 109.45 328.855 111.588C328.997 116.006 328.32 119.925 328.498 124.307C334.739 132.216 344.224 137.026 354.28 136.384C364.336 135.779 372.716 128.938 377.958 120.317V120.423Z" fill="#FF9A7D"/>
<path d="M352.533 76.9585C354.561 76.9585 356.206 75.3155 356.206 73.2889C356.206 71.2622 354.561 69.6193 352.533 69.6193C350.504 69.6193 348.86 71.2622 348.86 73.2889C348.86 75.3155 350.504 76.9585 352.533 76.9585Z" fill="#060305"/>
<path d="M319.726 68.6575C321.754 68.6575 323.399 67.0146 323.399 64.988C323.399 62.9613 321.754 61.3184 319.726 61.3184C317.697 61.3184 316.053 62.9613 316.053 64.988C316.053 67.0146 317.697 68.6575 319.726 68.6575Z" fill="#060305"/>
<path d="M334.56 66.0923C332.029 71.1513 329.461 76.2459 326.929 81.3049C328.748 81.5187 330.602 81.6968 332.421 81.9106" stroke="#060305" stroke-width="0.886039" stroke-linecap="round" stroke-linejoin="round"/>
<path d="M335.523 88.1097C336.985 89.998 339.659 90.853 341.942 90.1405C344.224 89.4279 345.936 87.1834 346.043 84.7964" stroke="#060305" stroke-width="0.886039" stroke-linecap="round" stroke-linejoin="round"/>
<path d="M316.695 47.9583C318.728 44.9656 322.722 43.4693 326.217 44.3956C329.711 45.3219 332.493 48.5283 332.814 52.1266" stroke="#060305" stroke-width="0.886039" stroke-linecap="round" stroke-linejoin="round"/>
<path d="M347.327 54.0149C349.645 52.6967 352.498 52.3048 355.101 52.9104C357.704 53.5161 360.058 55.1549 361.555 57.3638" stroke="#060305" stroke-width="0.886039" stroke-linecap="round" stroke-linejoin="round"/>
<path d="M376.746 82.2315C381.132 82.2315 385.518 82.2315 389.869 82.2315" stroke="#060305" stroke-width="0.886039" stroke-linecap="round" stroke-linejoin="round"/>
<path d="M327.643 111.944C335.452 115.578 344.973 115.4 352.64 111.481" stroke="#060305" stroke-width="0.886039" stroke-linecap="round" stroke-linejoin="round"/>
<path d="M385.697 330.586C396.394 330.586 406.237 327.202 413.796 320.789C424.28 311.918 429.915 296.883 427.811 283.416C425.564 269.094 414.973 257.302 401.993 254.772C390.19 252.456 377.174 257.979 368.829 268.88C366.583 271.802 366.832 276.255 369.364 278.82C371.896 281.385 375.747 281.1 377.994 278.215C383.593 270.876 392.222 267.135 399.96 268.667C407.841 270.234 414.51 277.502 415.829 285.946C417.113 294.282 413.44 303.723 406.629 309.495C400.281 314.839 391.473 317.262 381.81 316.371C371.967 315.409 362.518 311.312 354.53 307.393C351.427 305.861 347.826 307.536 346.506 311.098C345.187 314.661 346.649 318.794 349.751 320.326C358.631 324.672 369.257 329.268 380.811 330.372C382.487 330.515 384.127 330.622 385.768 330.622L385.697 330.586Z" fill="white"/>
<path d="M250.796 251.067C250.796 306.716 262.885 351.82 312.238 351.82C361.591 351.82 373.68 306.716 373.68 251.067H250.76H250.796Z" fill="white"/>
<path d="M254.683 262.468C294.301 262.468 333.919 262.396 373.537 262.361" stroke="#060305" stroke-width="0.886039" stroke-linecap="round" stroke-linejoin="round"/>
<path d="M359.986 325.42C362.589 321.002 365.228 316.585 367.831 312.131" stroke="#060305" stroke-width="0.886039" stroke-linecap="round" stroke-linejoin="round"/>
<path d="M315.875 288.368C317.872 275.329 319.833 262.254 321.83 249.214" stroke="#060305" stroke-width="0.886039" stroke-linecap="round" stroke-linejoin="round"/>
<path d="M325.574 329.98L293.124 324.137L299.008 291.539L316.517 287.264L331.458 297.382L325.574 329.98Z" fill="#FDB044"/>
<path d="M305.07 303.474C309.813 303.51 314.555 303.545 319.298 303.581" stroke="#060305" stroke-width="0.886039" stroke-linecap="round" stroke-linejoin="round"/>
<path d="M305.07 313.271C309.242 313.699 313.379 314.127 317.551 314.59" stroke="#060305" stroke-width="0.886039" stroke-linecap="round" stroke-linejoin="round"/>
<path d="M467.394 324.601C459.156 325.634 450.812 325.527 442.61 324.28C439.651 323.817 436.512 323.14 434.337 321.074C432.162 319.007 431.27 315.195 433.481 313.165C430.522 313.841 427.526 314.518 424.531 314.305C421.535 314.091 418.433 312.773 416.757 310.279C415.081 307.785 415.188 303.26 417.613 301.443C414.51 302.619 411.337 303.795 408.02 304.044C404.704 304.293 401.174 303.51 398.784 301.194C396.395 298.878 395.468 295.066 397.394 292.358C394.291 294.639 389.655 294.532 386.696 292.109C383.736 289.686 381.989 284.093 384.699 281.35C398.249 267.669 411.765 253.988 425.315 240.272C443.181 236.211 460.761 234.109 479.09 233.503C493.176 233.04 507.297 239.31 516.426 250.034C525.555 260.757 529.442 275.756 526.696 289.58C523.95 303.403 514.679 315.765 502.162 322.249L467.465 324.601H467.394Z" fill="#FF9A7D"/>
<path d="M394.433 295.031C405.309 285.981 416.221 276.897 427.097 267.847" stroke="#060305" stroke-width="0.886039" stroke-linecap="round" stroke-linejoin="round"/>
<path d="M413.119 303.759C421 299.84 428.845 295.921 436.726 292.002" stroke="#060305" stroke-width="0.886039" stroke-linecap="round" stroke-linejoin="round"/>
<path d="M431.234 314.554L444.571 310.707" stroke="#060305" stroke-width="0.886039" stroke-linecap="round" stroke-linejoin="round"/>
<path d="M48.854 211.521C66.6483 209.063 85.0844 211.521 101.666 218.397C108.549 221.247 113.077 227.981 113.184 235.427C113.47 253.026 113.434 270.519 113.933 288.19C109.083 289.401 104.983 286.409 101.417 282.882C87.5449 269.094 73.5663 255.2 62.4047 239.132C56.8062 231.045 52.8836 220.499 48.8184 211.521H48.854Z" fill="#FF9A7D"/>
<path d="M127.555 320.29L121.172 320.575C118.819 320.682 116.679 319.185 115.966 316.905L75.7772 187.259C73.9586 181.345 67.7181 177.498 61.7629 179.315C55.4868 181.203 52.2417 188.007 54.6309 194.028L104.983 320.753C105.874 322.962 105.125 325.456 103.235 326.881L98.1002 330.657C95.1761 332.795 94.0707 336.678 95.4614 340.027L116.929 391.971L122.67 389.94L111.687 356.487C111.08 354.634 112.043 352.675 113.898 352.033L114.147 351.962C115.966 351.321 117.963 352.247 118.676 354.064L131.264 386.983L137.112 384.917L126.307 351.356C125.701 349.539 126.699 347.544 128.518 346.903C130.337 346.262 132.334 347.188 133.011 348.969L145.706 381.853L151.447 379.822L135.543 325.919C134.509 322.427 131.228 320.112 127.627 320.254L127.555 320.29Z" fill="#060305"/>
<path d="M99.0278 340.846L132.584 329.41" stroke="white" stroke-width="0.886039" stroke-linecap="round" stroke-linejoin="round"/>
<path d="M9.23573 303.26C3.95807 301.443 0.106815 296.099 -0.00016421 290.541C-0.107144 284.984 3.56582 279.497 8.77215 277.466C4.13637 273.832 1.78283 267.028 2.74564 261.221C3.70846 255.413 8.02329 250.319 13.5862 248.359C9.6993 243.015 9.02177 236.032 12.873 230.653C16.7243 225.273 24.1059 222.744 30.4177 224.667C28.7773 220.179 30.2394 214.906 33.3061 211.236C36.3728 207.567 41.4722 205.678 46.1793 206.498C50.2089 207.175 53.7035 209.633 57.0199 211.984C71.9257 222.565 79.5569 239.239 91.1107 253.418C101.63 266.315 102.914 284.734 109.226 300.125C105.981 302.868 100.454 303.652 97.2085 300.944C100.703 304.97 104.162 308.996 107.657 312.986C106.765 316.442 102.593 318.402 99.0271 318.117C95.4612 317.832 92.2518 315.943 89.185 314.126C91.6099 316.834 93.9991 319.542 96.424 322.285C95.4612 325.278 91.3959 327.166 88.2579 327.415C85.1198 327.665 82.0531 326.56 79.129 325.384C74.3505 323.425 69.7504 321.038 65.3643 318.259C65.4713 321.002 61.9053 322.677 59.1595 322.997C56.4137 323.318 53.7392 322.249 51.1717 321.181C36.7294 315.266 23.9632 308.426 9.23573 303.296V303.26Z" fill="#FF9A7D"/>
<path d="M39.832 234.109C60.0511 257.052 80.2703 279.96 100.454 302.904" stroke="#060305" stroke-width="0.886039" stroke-linecap="round" stroke-linejoin="round"/>
<path d="M24.9624 258.869C47.7134 278.001 70.4287 297.168 93.1796 316.3" stroke="#060305" stroke-width="0.886039" stroke-linecap="round" stroke-linejoin="round"/>
<path d="M16.3325 284.307C32.3081 295.458 48.2837 306.573 64.2237 317.725" stroke="#060305" stroke-width="0.886039" stroke-linecap="round" stroke-linejoin="round"/>
<path d="M166.888 375.903C175.534 375.903 182.543 368.901 182.543 360.263C182.543 351.625 175.534 344.623 166.888 344.623C158.242 344.623 151.233 351.625 151.233 360.263C151.233 368.901 158.242 375.903 166.888 375.903Z" fill="#B50808"/>
<path d="M170.704 347.295C173.093 343.626 175.446 339.992 177.836 336.322" stroke="#060305" stroke-width="0.886039" stroke-linecap="round" stroke-linejoin="round"/>
<path d="M250.831 372.875H89.4707V427.277H250.831V372.875Z" fill="#FF9A7D"/>
<path d="M103.949 388.195L131.942 389.085" stroke="#060305" stroke-width="0.886039" stroke-linecap="round" stroke-linejoin="round"/>
<path d="M126.771 401.519L142.284 401.911" stroke="#060305" stroke-width="0.886039" stroke-linecap="round" stroke-linejoin="round"/>
<path d="M106.124 414.915C110.724 415.2 115.324 415.485 119.888 415.77" stroke="#060305" stroke-width="0.886039" stroke-linecap="round" stroke-linejoin="round"/>
<path d="M250.746 373.354H161.205V427.756H250.746V373.354Z" fill="#FFC9C8"/>
<path d="M250.831 392.256H161.29V407.897H250.831V392.256Z" fill="#B50808"/>
<path d="M261.422 446.979H75.0994L52.5981 436.469C45.9653 433.37 48.1762 423.394 55.5222 423.394H281.035C288.381 423.394 290.592 433.37 283.959 436.469L261.458 446.979H261.422Z" fill="white"/>
<path d="M57.02 434.51L280.928 433.583" stroke="#060305" stroke-width="0.886039" stroke-linecap="round" stroke-linejoin="round"/>
</g>
<defs>
<clipPath id="clip0_57_3081">
<rect width="608" height="446.725" fill="white" transform="translate(0 0.254272)"/>
</clipPath>
</defs>
</svg>
