<?xml version="1.0" encoding="UTF-8"?>
<svg id="Layer_1" xmlns="http://www.w3.org/2000/svg" xmlns:xlink="http://www.w3.org/1999/xlink" viewBox="0 0 2105.05 1047.09">
  <defs>
    <style>
      .cls-1 {
        fill: url(#Gradiente_sem_nome_3-2);
      }

      .cls-2 {
        fill: url(#Gradiente_sem_nome_3-3);
      }

      .cls-3 {
        fill: url(#Gradiente_sem_nome_3);
      }

      .cls-4 {
        fill: url(#Gradiente_sem_nome_3-4);
      }
    </style>
    <linearGradient id="Gradiente_sem_nome_3" data-name="Gradiente sem nome 3" x1="127.67" y1="514.47" x2="351.09" y2="514.47" gradientUnits="userSpaceOnUse">
      <stop offset="0" stop-color="#fb3d01"/>
      <stop offset="1" stop-color="#f27f2c"/>
    </linearGradient>
    <linearGradient id="Gradiente_sem_nome_3-2" data-name="Gradiente sem nome 3" x1="311.79" y1="520.01" x2="578.67" y2="520.01" xlink:href="#Gradiente_sem_nome_3"/>
    <linearGradient id="Gradiente_sem_nome_3-3" data-name="Gradiente sem nome 3" x1="922.95" y1="198.73" x2="1468.77" y2="198.73" xlink:href="#Gradiente_sem_nome_3"/>
    <linearGradient id="Gradiente_sem_nome_3-4" data-name="Gradiente sem nome 3" x1="793.03" y1="879.44" x2="1311.99" y2="879.44" xlink:href="#Gradiente_sem_nome_3"/>
  </defs>
  <g>
    <path class="cls-3" d="M127.67,648.4l58.61-268.63,72.17,1.33-10.27,46.47,2.49.05c8.61-16.29,19.63-28.5,33.07-36.65,13.44-8.14,28.12-12.06,44.05-11.77,3.98.07,8.08.31,12.29.71,4.21.41,7.88.96,11,1.67l-14.14,64.24c-3.27-1.04-7.96-1.89-14.07-2.58-6.11-.68-11.9-1.07-17.38-1.17-10.95-.2-21.36,1.97-31.21,6.51-9.86,4.54-18.23,11.07-25.13,19.57-6.9,8.51-11.63,18.6-14.2,30.28l-33.14,151.35-74.16-1.36Z"/>
    <path class="cls-1" d="M425.29,659.74c-24.72-.45-45.86-5.28-63.42-14.48-17.57-9.2-30.65-22.39-39.27-39.57-8.62-17.18-12.08-37.88-10.38-62.12,1.63-22.93,6.88-44.34,15.75-64.21,8.87-19.87,20.77-37.32,35.72-52.36,14.94-15.03,32.24-26.68,51.92-34.96,19.67-8.27,40.96-12.19,63.85-11.77,19.74.36,37.21,3.82,52.42,10.37,15.2,6.55,26.99,15.81,35.37,27.77,8.38,11.96,12.15,26.33,11.32,43.08-.85,17.25-6.61,31.27-17.27,42.07-10.67,10.8-26.02,19.03-46.06,24.68-20.04,5.66-44.51,9.36-73.41,11.11-28.9,1.75-62.01,2.28-99.34,1.59l9.93-44.77c31.69.58,57.68.49,77.98-.28,20.3-.76,36.11-2.39,47.44-4.87,11.33-2.48,19.31-6,23.94-10.55,4.62-4.56,7.11-10.25,7.45-17.09.43-8.62-2.89-15.44-9.95-20.46-7.06-5.02-17.06-7.64-30-7.88-16.09-.3-29.47,3.29-40.14,10.74-10.67,7.46-19.15,16.99-25.45,28.6-6.3,11.61-10.98,23.86-14.02,36.75-3.05,12.89-4.92,24.71-5.61,35.44-.87,10.73-.02,20.48,2.54,29.24,2.56,8.76,7.57,15.74,15.03,20.92,7.46,5.19,18.08,7.91,31.85,8.16,14.76.27,27.64-2.46,38.64-8.21,10.99-5.74,18.98-13.7,23.97-23.87l67.1,8.08c-10.33,24.24-27.6,43.59-51.82,58.05-24.21,14.46-52.91,21.38-86.09,20.77Z"/>
  </g>
  <path d="M485.43,835.62c-8.33,0-16.71-.13-25.14-.39-8.43-.26-16.39-.72-23.88-1.37-7.48-.65-14.3-1.5-20.45-2.54l35.25-103.46c4.87.78,10.46,1.49,16.78,2.15,6.32.65,12.2.98,17.67.98,16.91,0,30.48-4.43,40.7-13.27,10.21-8.85,17.79-22.78,22.72-41.77l118.74-454.81c9.36-35.39,23.32-65.06,41.87-89.01,18.55-23.94,41.56-42.1,69.03-54.46,27.46-12.36,58.9-18.54,94.29-18.54,14.05,0,27.02.46,38.91,1.37,11.88.91,23.18,2.54,33.89,4.88l-39.71,101.11c-5.37-1.04-11.48-1.76-18.34-2.15-6.86-.39-14.72-.59-23.56-.59-15.88,0-28.42,3.9-37.62,11.71-9.21,7.81-16.03,20.04-20.48,36.7l-120.55,461.45c-9.11,35.39-22.74,65.06-40.9,89.01-18.16,23.94-40.59,42.1-67.27,54.46-26.69,12.36-57.34,18.54-91.95,18.54ZM891.79,230.5l-26.44,101.11h-303.34l26.83-101.11h302.95Z"/>
  <path d="M887.25,750.57c-35.37,0-64.98-7.26-88.83-21.77-23.85-14.51-41.36-34.96-52.51-61.36-11.16-26.39-15.41-57.23-12.75-92.51,2.56-34.02,9.98-66.24,22.25-96.64,12.27-30.4,28.75-57.35,49.46-80.87,20.7-23.51,45.11-41.97,73.21-55.35,28.1-13.38,59.16-20.08,93.17-20.08s64.93,7.19,88.67,21.58c23.74,14.39,41.2,34.78,52.36,61.17,11.16,26.4,15.4,57.36,12.73,92.88-2.53,33.53-9.81,65.43-21.83,95.7-12.04,30.28-28.35,57.23-48.95,80.87-20.6,23.64-44.97,42.28-73.09,55.92-28.12,13.63-59.42,20.45-93.88,20.45Z"/>
  <path d="M1277.34,750.57c-35.37,0-64.98-7.26-88.83-21.77-23.85-14.51-41.36-34.96-52.51-61.36-11.16-26.39-15.41-57.23-12.75-92.51,2.56-34.02,9.98-66.24,22.25-96.64,12.27-30.4,28.75-57.35,49.46-80.87,20.7-23.51,45.11-41.97,73.21-55.35,28.1-13.38,59.16-20.08,93.17-20.08s64.93,7.19,88.67,21.58c23.74,14.39,41.2,34.78,52.36,61.17,11.16,26.4,15.4,57.36,12.73,92.88-2.53,33.53-9.81,65.43-21.84,95.7-12.03,30.28-28.35,57.23-48.95,80.87-20.61,23.64-44.97,42.28-73.09,55.92-28.12,13.63-59.42,20.45-93.88,20.45Z"/>
  <path d="M1637.79,744.24c-39.61,0-71.35-13.36-95.21-40.08-23.86-26.72-34.65-65.04-32.37-114.97,1.36-29.76,6.8-59.18,16.34-88.25,9.53-29.06,22.8-55.43,39.83-79.11,17.02-23.67,37.45-42.54,61.3-56.6,23.85-14.06,50.77-21.09,80.77-21.09,21.09,0,38.51,3.52,52.26,10.55,13.74,7.03,24.45,16.17,32.15,27.42,7.69,11.25,13.13,22.97,16.32,35.16h2.81l42.69-203.21h122.7l-110.77,523.85h-120.94l13.71-61.53h-3.87c-8.12,13.6-17.87,25.49-29.23,35.69-11.36,10.2-24.44,18.11-39.23,23.73-14.79,5.63-31.21,8.44-49.25,8.44Z"/>
  <path class="cls-2" d="M1225.34,88.04c-41-1.28-80.86,6.65-117.22,22.33-20.16-8.74-44.93-6.42-62.13,8.1l-1.21,1.02-23.63,19.84-93.76,78.77c-5.69,4.79-5.94,12.78-.56,17.86,5.29,5.13,14.28,5.41,19.91.62l68.69-57.75c3.68-3.12,9.65-2.93,13.13.47,3.57,3.4,3.4,8.61-.37,11.78l-68.65,57.67c-5.63,4.79-5.88,12.78-.56,17.86,5.35,5.1,14.28,5.38,19.97.68l68.69-57.69c3.71-3.14,9.59-3.05,13.13.35,3.51,3.4,3.34,8.72-.37,11.84l-68.65,57.67c-5.63,4.79-5.88,12.78-.56,17.91,5.35,5.07,14.28,5.35,19.91.62l93.79-78.91,23.6-19.79,1.21-1.02c16.47-13.87,21.14-34.67,14.04-52.68,25.35-8.89,52.49-13.45,80.2-12.58,98.71,3.14,180.62,69.27,194.91,157.13,1.98,12.22,14.39,20.78,28.42,19.24,13.75-1.75,23.26-13.05,21.22-25.38-17.69-109.54-119.96-191.96-243.15-195.95Z"/>
  <path class="cls-4" d="M1172.5,818.17c-42.91,28.42-64.03,70.11-56.45,103.16-30.42,12.93-63.69,18.83-97.93,15.53-84.11-8.09-153.04-66.04-175.72-147.61-2.92-10.29-11.75-17.27-21.82-18.24-2.94-.28-6.03-.02-9.11.81-13.36,3.72-21.23,17.56-17.52,30.99,28.33,101.66,114.39,173.98,219.36,184.08,48.3,4.65,94.78-5.92,136.51-26.92,30.86,11.66,74.11-1.62,108.97-37.07,44.85-45.59,65.33-101.87,45.8-125.61-19.62-23.87-78.84-14.46-132.08,20.87Z"/>
</svg>